<svg width="242" height="91" viewBox="0 0 242 91" fill="none" xmlns="http://www.w3.org/2000/svg">
<g clip-path="url(#clip0_114_8)">
<path fill-rule="evenodd" clip-rule="evenodd" d="M2.83 0H238.2C239.76 0 241.03 1.28 241.03 2.84V88.1C241.03 89.66 239.76 90.93 238.2 90.93H2.83C1.27 90.93 0 89.65 0 88.1V2.84C0 1.28 1.28 0 2.83 0Z" fill="#FBF9ED"/>
<path d="M135.77 41.7899C134.31 39.0299 134.77 38.2399 135.41 37.1599C135.61 36.8199 135.84 36.4399 136.02 35.9999C136.48 34.9199 136.04 33.6899 135.01 33.1199C133.93 32.5399 132.62 32.8499 131.94 33.8599C130.3 36.3099 126.26 42.2699 124.26 44.6699C121.21 48.3299 118.91 50.1999 117.42 50.2299C117.15 50.2399 116.8 50.1699 116.36 49.6799C116.35 49.6699 115.45 48.1899 118.79 41.6599C120.9 41.6799 123.04 41.5999 125.17 41.3099C126.28 41.1599 127.06 40.1299 126.91 39.0199C126.76 37.9099 125.73 37.1299 124.62 37.2799C123.44 37.4399 122.26 37.5299 121.07 37.5699C122.61 34.9899 123.94 33.0899 123.95 33.0599C124.59 32.1399 124.37 30.8699 123.45 30.2299C122.53 29.5899 121.26 29.8099 120.62 30.7299C120.52 30.8699 118.45 33.8399 116.39 37.5299C115.48 37.4899 114.57 37.4499 113.64 37.3999C113.18 37.3799 112.71 37.3499 112.25 37.3299C109.85 37.2199 107.37 37.4299 104.85 37.9599C101.55 36.4399 96.98 36.4099 93.66 38.0199C90.69 39.4599 88.81 41.7399 86.99 43.9499C86.29 44.8099 85.62 45.6199 84.89 46.3799L84.75 46.5299C80.86 50.6099 79.54 50.5499 78.76 49.9399C78.67 49.8699 78.57 49.7799 78.47 49.6699C78.46 49.6599 77.51 48.0899 81.21 41.0399C83.4 36.8799 86.03 33.0899 86.06 33.0499C86.7 32.1299 86.48 30.8599 85.55 30.2199C84.63 29.5799 83.36 29.7999 82.72 30.7199C82.61 30.8799 79.93 34.7299 77.63 39.1099C74.08 45.8499 73.38 50.0699 75.44 52.3699C75.7 52.6599 75.97 52.9199 76.26 53.1399C80.74 56.6299 85.61 51.5099 87.69 49.3299L87.83 49.1899C88.66 48.3199 89.41 47.4099 90.13 46.5299C91.63 44.6999 93.05 42.9699 95 41.8899C93.33 43.1999 92.23 44.9099 91.9 46.7299C91.61 48.3099 91.9 49.9699 92.71 51.4199C93.49 52.8199 94.73 53.9399 96.2 54.5799C97.17 55.0099 98.25 55.2199 99.36 55.2199C100.47 55.2199 101.72 54.9899 102.86 54.5199C104.8 53.7299 106.49 52.3599 107.77 50.5499C108.92 48.9199 109.56 47.1399 109.61 45.4199C109.65 43.9699 109.34 42.6399 108.71 41.4699C109.84 41.3599 110.95 41.3399 112.04 41.3899C112.5 41.4099 112.96 41.4299 113.42 41.4599C113.72 41.4699 114.02 41.4899 114.32 41.4999C111.83 46.8699 111.51 50.3499 113.31 52.3699C114.43 53.6199 115.83 54.2799 117.38 54.2799C117.41 54.2799 117.44 54.2799 117.47 54.2799C121.08 54.2199 124.5 50.6999 127.36 47.2599C128.39 46.0199 129.86 43.9999 131.34 41.8999C131.55 42.4499 131.82 43.0399 132.16 43.6799L132.39 44.0999C133.31 45.8199 134.57 48.1799 133.74 49.4399C133.3 50.1099 132.15 50.2799 131.26 50.1599C130.48 50.0499 129.64 49.7499 128.62 49.1999C127.63 48.6699 126.4 49.0399 125.87 50.0299C125.34 51.0199 125.72 52.2499 126.71 52.7799C128.17 53.5599 129.45 54.0099 130.72 54.1799C132.84 54.4699 135.64 53.9599 137.15 51.6699C139.31 48.3899 137.23 44.4999 135.98 42.1799L135.76 41.7699L135.77 41.7899ZM104.47 48.2199C103.65 49.3799 102.54 50.2799 101.35 50.7699C100.14 51.2699 98.83 51.2999 97.85 50.8699C97.2 50.5899 96.63 50.0699 96.28 49.4499C95.94 48.8399 95.81 48.1199 95.92 47.4699C96.07 46.6399 96.67 45.7599 97.57 45.0699C98.48 44.3699 99.61 43.8699 101.01 43.3299C102.09 42.9199 103.15 42.5799 104.21 42.2999C105.16 43.0499 105.6 44.0499 105.57 45.3199C105.54 46.4799 104.96 47.5299 104.48 48.2099" fill="#304740"/>
<path d="M70.96 41.79C69.23 38.53 70.07 37.52 70.81 36.62L70.92 36.48C71.63 35.61 71.5 34.33 70.62 33.62C69.75 32.91 68.47 33.05 67.76 33.92L67.66 34.04C66.03 36.02 64.73 38.72 67.36 43.69L67.59 44.12C68.51 45.84 69.77 48.2 68.94 49.46C68.5 50.12 67.35 50.3 66.46 50.17C65.31 50.01 64.18 49.43 63.31 48.93C62.34 48.37 61.09 48.71 60.54 49.68C59.98 50.66 60.32 51.9 61.29 52.46C62.47 53.14 64.06 53.95 65.9 54.2C66.25 54.25 66.62 54.27 67 54.27C68.91 54.27 71.07 53.6 72.33 51.68C74.48 48.4 72.41 44.51 71.16 42.19L70.94 41.78L70.96 41.79Z" fill="#304740"/>
<path d="M180.45 61.3799C179.6 60.5499 178.65 59.6399 177.93 58.9299C177.64 58.6499 177.84 58.1599 178.25 58.1599H179.62C180.58 58.1599 181.04 56.9699 180.32 56.3299L170.35 47.4299L170.21 47.7899C169.55 49.4299 168.81 50.7999 167.94 51.9799C165.97 54.6799 163.38 56.2699 160.57 56.9099C163.09 56.3299 165.19 54.8499 166.99 52.3799C167.8 51.2799 168.49 49.9899 169.12 48.4499L169.73 46.8699L174.97 33.7399C175.26 33.0199 174.54 32.2999 173.81 32.5899C172.67 33.0499 170.11 34.0899 166.87 35.3999L167.56 33.6599C167.84 32.9599 167.14 32.2699 166.45 32.5499L157.66 36.1099L156.1 34.7199L156.58 34.9199C156.88 35.0499 157.23 34.9099 157.35 34.6099C157.48 34.3099 157.34 33.9599 157.04 33.8399L155.23 33.0699C155.9 32.4999 156.54 31.9499 157.16 31.4299C157.79 30.8999 157.63 29.8899 156.87 29.5699L153.01 27.9699C152.16 27.6199 151.19 27.7699 150.5 28.3699C149.84 28.9399 149.13 29.5399 148.41 30.1599L146.15 29.1999C145.85 29.0699 145.5 29.2099 145.38 29.5099C145.25 29.8099 145.39 30.1599 145.69 30.2799L147.31 30.9699H143.57C142.67 30.9699 142.23 32.0499 142.86 32.6899L146.47 36.2999V43.8099C146.47 45.6099 146.8 47.3599 147.46 49.0199V49.0399L147.5 49.1499C147.5 49.1499 147.53 49.2199 147.54 49.2499L147.65 49.4999C149.93 54.7799 155.05 58.1699 160.82 58.1699H164.79C167.26 58.1699 169.64 59.1399 171.4 60.8699L173.16 62.5899C173.52 62.9499 174.01 63.1499 174.52 63.1599C175.46 63.1799 175.94 62.0399 175.27 61.3899L172.78 58.9499C172.49 58.6699 172.69 58.1799 173.1 58.1799H173.42C173.69 58.1799 173.95 58.2899 174.14 58.4799C175.01 59.3399 177.07 61.3399 178.39 62.6299C178.74 62.9799 179.21 63.1699 179.71 63.1699H179.75C180.67 63.1699 181.13 62.0499 180.47 61.3999M164.11 34.7699C164.89 34.4499 165.66 35.2299 165.35 35.9999L163.75 36.6399C162.53 37.1299 161.26 37.6399 159.96 38.1599L158.64 36.9799C160.75 36.1299 162.64 35.3699 164.11 34.7699ZM147.14 34.0399C147.14 33.3199 147.73 32.7299 148.45 32.7299C149.17 32.7299 149.75 33.3199 149.75 34.0399C149.75 34.7599 149.17 35.3399 148.45 35.3399C147.73 35.3399 147.14 34.7599 147.14 34.0399ZM155.05 40.2099C154.67 40.4099 154.31 40.6199 153.95 40.8399C153.88 40.8799 153.82 40.9199 153.75 40.9599C153.4 41.1899 153.05 41.4299 152.72 41.6799C152.66 41.7199 152.61 41.7699 152.55 41.8099C152.21 42.0799 151.88 42.3499 151.56 42.6499C151.54 42.6699 151.52 42.6899 151.5 42.7099C151.19 42.9999 150.9 43.2999 150.61 43.6099C150.57 43.6499 150.53 43.6899 150.49 43.7299C150.21 44.0399 149.95 44.3699 149.69 44.6999C149.64 44.7699 149.59 44.8299 149.54 44.8999C149.3 45.2299 149.06 45.5699 148.85 45.9199C148.81 45.9899 148.76 46.0599 148.72 46.1299C148.5 46.4899 148.3 46.8599 148.11 47.2399C148.11 47.2499 148.1 47.2699 148.09 47.2799C147.78 46.1599 147.63 44.9899 147.63 43.7999V39.2899C147.72 39.2899 147.81 39.2599 147.89 39.2499C147.95 39.2399 148.01 39.2299 148.07 39.2199C148.21 39.1899 148.35 39.1499 148.49 39.1099C148.51 39.1099 148.52 39.1099 148.54 39.0999C148.69 39.0499 148.84 38.9999 148.99 38.9399C149.03 38.9199 149.08 38.8999 149.12 38.8799C149.22 38.8399 149.32 38.7899 149.41 38.7399C149.46 38.7099 149.51 38.6799 149.56 38.6499C149.64 38.5999 149.73 38.5499 149.81 38.4999C149.86 38.4599 149.92 38.4299 149.97 38.3899C150.05 38.3399 150.12 38.2799 150.19 38.2199C150.24 38.1799 150.29 38.1399 150.34 38.0899C150.41 38.0299 150.47 37.9699 150.54 37.9099C150.59 37.8599 150.63 37.8099 150.68 37.7699C150.74 37.7099 150.8 37.6399 150.86 37.5699C150.9 37.5199 150.95 37.4699 150.99 37.4099C151.05 37.3399 151.1 37.2699 151.15 37.1999C151.19 37.1399 151.23 37.0899 151.27 37.0299C151.32 36.9599 151.36 36.8799 151.41 36.7999C151.44 36.7399 151.48 36.6799 151.51 36.6199C151.55 36.5399 151.59 36.4599 151.63 36.3799C151.66 36.3199 151.69 36.2599 151.71 36.1899C151.75 36.0999 151.78 36.0199 151.8 35.9299C151.82 35.8699 151.84 35.7999 151.86 35.7399C151.89 35.6499 151.91 35.5499 151.93 35.4599C151.94 35.3999 151.96 35.3399 151.97 35.2699C151.99 35.1599 152.01 35.0599 152.02 34.9499C152.02 34.8999 152.04 34.8399 152.04 34.7899C152.06 34.6299 152.06 34.4599 152.06 34.2899V32.9899L152.7 33.2599L158.73 38.6399C158.1 38.8899 157.47 39.1399 156.84 39.3999C156.71 39.4499 156.57 39.5099 156.44 39.5599C156.02 39.7299 155.62 39.9199 155.21 40.1199C155.16 40.1499 155.1 40.1699 155.04 40.1999M158.47 50.7499C157.18 50.7499 156.12 49.6999 156.12 48.3999C156.12 47.0999 157.17 46.0499 158.47 46.0499C159.77 46.0499 160.82 47.1099 160.82 48.3999C160.82 49.6899 159.77 50.7499 158.47 50.7499Z" fill="#304740"/>
<path d="M173.73 44.3401C172.73 44.3401 171.92 45.1501 171.92 46.1501C171.92 47.1501 172.73 47.9601 173.73 47.9601C174.73 47.9601 175.54 47.1501 175.54 46.1501C175.54 45.1501 174.73 44.3401 173.73 44.3401ZM173.73 47.7101C172.87 47.7101 172.17 47.0101 172.17 46.1501C172.17 45.2901 172.87 44.5901 173.73 44.5901C174.59 44.5901 175.29 45.2901 175.29 46.1501C175.29 47.0101 174.59 47.7101 173.73 47.7101Z" fill="#304740"/>
<path d="M174.39 45.77C174.39 45.4 174.13 45.28 173.78 45.28H173.23V47.03H173.46V46.29H173.77L174.19 47.03H174.44L173.99 46.26C174.23 46.2 174.39 46.04 174.39 45.77ZM173.75 46.11H173.46V45.46H173.75C174.02 45.46 174.17 45.54 174.17 45.77C174.17 46 174.02 46.11 173.75 46.11Z" fill="#304740"/>
</g>
<defs>
<clipPath id="clip0_114_8">
<rect width="241.04" height="90.93" fill="white"/>
</clipPath>
</defs>
</svg>
